<svg width="139" height="70" fill="none" xmlns="http://www.w3.org/2000/svg"><path d="M139 0H0l60 65.7a12.7 12.7 0 0 0 19 0L139 0Z" fill="#81B3D3"/><path d="M36.8.5 69 38.2 101 .7 36.9.5Z" fill="#23A9E1"/><path d="M61.3 14.6h17.3c-1.3-.8-4.4-4.6-6-3.2 0 .1-5-5.6-8-2.8-2.7 2.4-4-.3-7 1.5-3.6 2.4 2 3.7 3.7 4.5ZM88 11.1l-9.8.1c4-4.4 5.6-4 9.8 0Z" fill="#fff"/><path d="M97.9 3.6V1.2h2l-2 2.4Zm-49.4 9.3c.1.1 2.4-2.4 6.2-4.8C58 5.8 63.3 3 69 3c5.8 0 11.1 2.8 14.5 5 3.7 2.4 6 4.8 6.2 5l-2.6 3c-4.5.5-7.7 3.8-12 3.1-2.3-.4-2.4-1.6-3-2.9-.5-1-1.3-.8-2.3-1.2-1-.4-1.5-1-3.4-.7-1.6.4-1.8 3-4 2.8-1 0-1.1-1.6-2.7-3.6-4.1-4.8-8-4.1-10.6.3L69 37.1 48.5 13ZM40.1 1.2V3l-1.6-2h1.6Zm54 0h3.3v3L94.2 8V1.2Zm-4 11.3V1.2h3.5v7.4l-3.5 4Zm-.5-10.3V12a26 26 0 0 0-3.7-3l3.7-6.8Zm-4.2-.3v6.8l-1.5-1c-.7-.4-1.4-1-2.2-1.3l3.7-4.5ZM81 1.7V6l-3-1.5 3-2.8Zm.6-.5h3.7l-3.7 4.6V1.2Zm4.3 0h3.7l-3.7 7v-7Zm-8.8 0h4l-3.6 3h-.3v-3Zm-.5.4V4l-3-1 3-1.4Zm-4.2 0v1.3l-2.2-.3 2.2-1Zm-6.8 0 2.2 1c-.8 0-1.5 0-2.2.3V1.6Zm-4.1 0 3 1.5a16 16 0 0 0-3 .9V1.6ZM65 2.8l-3.3-1.6H65v1.6Zm3.5-.4L65.8 1h2.8v1.3Zm.7-1.2h2.9l-2.9 1.3V1.2Zm3.7 0h3.2L73 2.8V1.2Zm-12.4 3-3.5-3H61v3h-.4ZM57 1.8l3 2.7-3 1.5V1.7Zm-4.4.2 3.7 4.5c-1.3.7-2.5 1.5-3.7 2.4v-7Zm-4.2.3 3.6 7c-1.3 1-2.5 2-3.6 3.1V2.2Zm3.7 6L48.5 1h3.6v7Zm4.4-2.5L52.7 1h3.8v4.6ZM43.8 7.5l-3.2-3.8V1.2h3.2v6.3Zm.6-6.3H48v11.1l-3.5-4.1v-7ZM69.3 0H36.1v14.5L69 54.2l.2-.3 33-39V0H69.4Z" fill="#491213"/><path d="m66.4 45.8 2.6-4.2 2.6 4.2-2.6 4.1-2.6-4.1Z" fill="#23A9E1"/><path d="M74.4 30.4c-3.4-2-2.6-3.4.2-4.8 1.5-.7 4.8-3.4 6.1-2.5l-6.3 7.3ZM72.1 33c-2 0-4.3-.4-6.3.1 1.2.3 4.2 1.2 1.4 2 1 1.3 2.6 1.2 3.6 0l-1-.7c1.1-.3 2.1-.9 2.3-1.4Zm1.2-1.6c-.9-.8-1.9-.8-2.7 0-1.2-2-5.4-1.4-7.4-1.7 1 2.6 9.6 3.1 10.1 1.7Zm-6.8-2.1c-1.6-.5-6.8-.4-3.4-1.8 1-.4 6.7 0 3.4 1.8Zm2-3c-.5-1.1.4-2.4 1.7-1.4 1.2.8-.6 2-1.7 1.4Zm-3 0c-2.2.8-5.2-.7-1.5-1.4 2.3-.5 4.7.5 1.6 1.5 0 0-.1 0 0 0ZM63 20.2c-.5 1.6-1.5 1.9-1.4 0 0-2.3 1.6-1.7 3.2-2.6 1.3-.7 2-3.4 4.3-1.8 1 .7 2.2.1 2.5 1.2 0 0-3 6.7-1.3 6.7-3.2 0-1.8-3.8-.6-6.4-1.2.6-3.1 4.3-1.5 5-.8 1-3.4 2.6-4.7 1.5-1.1-1-.5-2.3-.5-3.6Zm-4 2.8c-5.6 0-1.8-8.6 0-8 2.3.6 2 8 0 8Zm-6.3-8.2c-2.6 0-1.5-2.6.4-3 1.7-.6 5.2 1 6.4 2.1-1.8.6-4.1.5-6.1.6-.2-2-.8-1.3-.7.3Z" fill="#DC6243"/><path d="M72 25.7c-2.9-3 4.3-2.7 5.5-3.8.8.3 7-5.4 8.5-5-1 1.3-3.4 5.3-5 5.3-1.3 0-2.6-.2-3.6.7-1.5 1.4-3.9 2-5.4 2.8Z" fill="#F49774"/><path d="M73 22c-1.7 1-3.2-2.4-.4-2.1 1.8.2 3.7-.2 5.4.1a5.9 5.9 0 0 1-5 2Z" fill="#F4B1A4"/><path d="M51.2 20.8c.3.4.6.8.5 1.4 0 .4-.6 1-.2 1.2l1.6-1.8a20 20 0 0 1-3.6-4.2l-2 1.1c0 .4.7 0 1.1 0 .5 0 1 .4 1.3.7-1 .9-3.8 3.3-4 3.3-.2 0-.8-.4-.8 0 0 .2.6.7.7.8l1.4 1.7c.4-.2 0-.5.1-.8l4-3.4Zm-3.4-4.5c.3 0 .4.3.6 0l-1.6-1.9c-.2-.3-.5-.6-.5 0 .1.4-4 3.7-4.2 3.8-.3.1-.5-.3-.7.1l1.4 1.7.5.6c.2.2.1-.4.1-.4 0-.3.3-.6.6-.8 1-1 3.5-3 3.8-3Zm-5.7-.6c-1 .3-2.4 0-2.7-1.3-.4-1.2.4-2.4 1.3-3 1-.8 2.3-.7 2.8.4.2.5.1 1.1 0 1.6-.2.3-.5.6 0 .8l1.6-2c-.7-.5-1-1.2-1.5-1.8-.6-.6-1.3-1.3-2.3-1.4-1.9-.3-3.6 1.6-3.8 3.3 0 1 .2 1.8.8 2.6.5.6 1.2 1.1 1.6 1.8.2.1 1.8-.7 2.1-.8.2 0 .1 0 .1-.2-.5.2 0 0 0 0Zm25.6 23.5c-.7-.5-2.6-3-3-3.5l-.2-.3-.2.1v.6c-.5.8-3.7 3.2-4 3.4-.3.2-.7-.1-1 .2l2 2.3c.4 0 .2-.5.2-.6 0-.2 1.7-1.6 2.3-2.1.2-.2.4.3.6.5.2.3.3.7.2 1-.1.2-.5.6-.2.8a54 54 0 0 1 1.7-2c.2-.2-.4 0-.3-.1-.2.1-.5.2-.7 0-.1 0-.7-.7-.6-.8.3-.2.6-.6 1-.7.6 0 1 1 1 1.4.2.4.2.8 0 1-.1.4-.3.6 0 .7l1.4-1.9c0 .1-.1.1-.2 0-.1 0 0 .1 0 0Zm-9.2-8.9c-.7 0-1.4.3-2 .8A3.5 3.5 0 0 0 56 36c1.3 1.7 3.4 2 5 .7a3.5 3.5 0 0 0 .6-4.8 4 4 0 0 0-3.1-1.5Zm1.2 1.4c.9 0 1.5.8 1 1.8-.3 1-1.3 2-2.3 2.4-1.2.5-2-.5-1.5-1.7.4-1 1.4-2 2.4-2.4h.4Zm-2.8-4.5c.3 0 .6.4.8 0l-1.4-1.7c-.4.2 0 .4-.1.6-.2.3-1.7.5-2.1.6a6 6 0 0 1 .8-1.8c.4-.3.6.3.8-.1l-1.8-2.1c-.2-.2-.4-.7-.6-.4l-.1 1c-.1.3-.7 2.5-1.3 3a11 11 0 0 1-1.8 1.4c-.3 0-.5-.4-.8 0l1.6 1.8.5.6c.3.1 0-.6.1-.7.1-.2 1.7-1.7 2.4-1.8.9-.2 2-.5 3-.4.2 0-.2 0 0 0ZM81 33.8c.1.4.2 1 .1 1.3 0 .6-.6 2-1.4 1.5-.8-.4-1.4-1-2-1.7.4-.6 1-1 1.8-.8.2.1.4 0 .2-.2a12 12 0 0 0-2-1.2c-.3.2.2.6 0 1 0 .3-.4.5-.6.8-.5-.4-1.2-.8-.7-1.5.4-.4.8-.8 1.4-.9.4 0 1.2.3 1.3 0l-2-1c0 .4-2.3 2.8-2.8 3.4l-.4.5c0 .3.4.1.4.1.3 0 4.4 3.3 4.5 3.6v.5l.2.1c.3-.3 3-3.9 3.5-4L81.1 33c-.4.2 0 .7 0 1Zm-4 4.4c-1.3-.9-3.6.8-4 1-.7.3-1.2-.4-.8-1 .3-.5 1-.8 1.5-.8h1v-.2c-.7-.4-1.2-.8-1.8-1 0 .6-.9 1-1.3 1.5-.5.6-1 1.3-1 2s.4 1.4 1.1 1.7c.7.4 1.5 0 2.2-.3l1.2-.8c.6-.3 1.5 0 1.3.8-.2.7-.9 1.3-1.6 1.5l-1.2-.1c-.3-.1-.6-.5-.8-.1l2.3 1.6c.1-.5.3-.7.7-1l1.3-1.4c.8-1 1.1-2.5 0-3.4Zm17.7-28c0 .1 0 .1 0 0l-1 1-.7 1c-.2.2-.3.3 0 .5.5-.3 3.5 4.8 3.3 5.5a20 20 0 0 1-4.6-3.5s.2-.7-.1-.6l-.6.7-.6.7c.2.3.3 0 .6 0l1.5 1.1-2 .1c-.5.1-.2-.4-.6-.6L88.5 18l-1 1v.1c.2.2.1.1.4 0 .3-.1 4.4 3.2 4.5 3.4.2.3-.1.6.3.8l1.2-1.4v-.1c-.3-.2-.3 0-.7 0-.3 0-3-2.1-3.8-2.9l5.3-.2c.2 0 .7.6.7.8-.1.2-.3.4 0 .5l.9-1.1v-.2c.2 0 .2 0 .2-.2.4-.4 1.3-1.4 1.2-1.5-.3-.3-.4.3-.8 0a11 11 0 0 1-1-1.4c-.1-.3.5-.6.7-.7.5-.3 2-.8 2.3.2 0 .2-.2.4-.1.5 0 0 0 .2.2.1l2-2.6-.1-.2c-.5.5-5.5-1.5-5.8-1.8-.1-.2-.1-.8-.3-.8Zm-.2 2.6 2.3 1a3383.8 3383.8 0 0 1-1.2.8l-1.1-1.8Zm-6.7 7.7c-1-.1-2.2.4-3 1.3-1.2 1.5-1 3.7.4 4.9 1.5 1.2 3.8.9 5-.5 1.2-1.5 1-3.7-.4-5a4 4 0 0 0-2-.7Zm-1.4 1.6c.6 0 1.3.4 1.7.7.9.5 2.3 1.7 1.6 2.7 0-.1 0-.1-.1 0-.8.9-2.3.2-3-.4-.7-.5-2-1.7-1.2-2.7.3-.2.6-.3 1-.3Zm-3 4.3c-1.3-.1-2.5.5-3.4 1.6l-1.9 2.2c.2.3.5 0 .8.1.3.2 4.1 3.3 4.1 3.5.1.3-.2.4.1.6.1.1 3-3.4 3.2-4a3 3 0 0 0-.8-3.1c.1 0 .2 0 0 0-.8-.6-1.5-1-2.2-1ZM82.2 28h.3c1.4.4 3.4 2 2.1 3.5l-.4.4c-.2.2-4.2-3-4-3.1.4-.5 1.3-1 2-.8Z" fill="#fff"/></svg>